<?xml version="1.0" encoding="UTF-8"?>
<svg width="600mm" height="120mm" version="1.1" viewBox="0 0 600 120" xmlns="http://www.w3.org/2000/svg">
 <g fill="none" stroke="#000" stroke-linecap="round" stroke-linejoin="round" stroke-width=".26458">
  <path d="m592.65 10a2.65 2.65 0 0 1-2.65 2.65 2.65 2.65 0 0 1-2.65-2.65 2.65 2.65 0 0 1 2.65-2.65 2.65 2.65 0 0 1 2.65 2.65z" vector-effect="non-scaling-stroke" style="-inkscape-stroke:hairline"/>
  <path d="m12.65 10a2.65 2.65 0 0 1-2.65 2.65 2.65 2.65 0 0 1-2.65-2.65 2.65 2.65 0 0 1 2.65-2.65 2.65 2.65 0 0 1 2.65 2.65z" vector-effect="non-scaling-stroke" style="-inkscape-stroke:hairline"/>
  <path d="m12.65 66a2.65 2.65 0 0 1-2.65 2.65 2.65 2.65 0 0 1-2.65-2.65 2.65 2.65 0 0 1 2.65-2.65 2.65 2.65 0 0 1 2.65 2.65z" vector-effect="non-scaling-stroke" style="-inkscape-stroke:hairline"/>
  <path d="m556.6 105a1.6 1.6 0 0 1-1.6 1.6 1.6 1.6 0 0 1-1.6-1.6 1.6 1.6 0 0 1 1.6-1.6 1.6 1.6 0 0 1 1.6 1.6z" vector-effect="non-scaling-stroke" style="-inkscape-stroke:hairline"/>
  <path d="m526.6 105a1.6 1.6 0 0 1-1.6 1.6 1.6 1.6 0 0 1-1.6-1.6 1.6 1.6 0 0 1 1.6-1.6 1.6 1.6 0 0 1 1.6 1.6z" vector-effect="non-scaling-stroke" style="-inkscape-stroke:hairline"/>
  <path d="m496.6 105a1.6 1.6 0 0 1-1.6 1.6 1.6 1.6 0 0 1-1.6-1.6 1.6 1.6 0 0 1 1.6-1.6 1.6 1.6 0 0 1 1.6 1.6z" vector-effect="non-scaling-stroke" style="-inkscape-stroke:hairline"/>
  <path d="m466.6 105a1.6 1.6 0 0 1-1.6 1.6 1.6 1.6 0 0 1-1.6-1.6 1.6 1.6 0 0 1 1.6-1.6 1.6 1.6 0 0 1 1.6 1.6z" vector-effect="non-scaling-stroke" style="-inkscape-stroke:hairline"/>
  <path d="m436.6 105a1.6 1.6 0 0 1-1.6 1.6 1.6 1.6 0 0 1-1.6-1.6 1.6 1.6 0 0 1 1.6-1.6 1.6 1.6 0 0 1 1.6 1.6z" vector-effect="non-scaling-stroke" style="-inkscape-stroke:hairline"/>
  <path d="m406.6 105a1.6 1.6 0 0 1-1.6 1.6 1.6 1.6 0 0 1-1.6-1.6 1.6 1.6 0 0 1 1.6-1.6 1.6 1.6 0 0 1 1.6 1.6z" vector-effect="non-scaling-stroke" style="-inkscape-stroke:hairline"/>
  <path d="m376.6 105a1.6 1.6 0 0 1-1.6 1.6 1.6 1.6 0 0 1-1.6-1.6 1.6 1.6 0 0 1 1.6-1.6 1.6 1.6 0 0 1 1.6 1.6z" vector-effect="non-scaling-stroke" style="-inkscape-stroke:hairline"/>
  <path d="m346.6 105a1.6 1.6 0 0 1-1.6 1.6 1.6 1.6 0 0 1-1.6-1.6 1.6 1.6 0 0 1 1.6-1.6 1.6 1.6 0 0 1 1.6 1.6z" vector-effect="non-scaling-stroke" style="-inkscape-stroke:hairline"/>
  <path d="m316.6 105a1.6 1.6 0 0 1-1.6 1.6 1.6 1.6 0 0 1-1.6-1.6 1.6 1.6 0 0 1 1.6-1.6 1.6 1.6 0 0 1 1.6 1.6z" vector-effect="non-scaling-stroke" style="-inkscape-stroke:hairline"/>
  <path d="m286.6 105a1.6 1.6 0 0 1-1.6 1.6 1.6 1.6 0 0 1-1.6-1.6 1.6 1.6 0 0 1 1.6-1.6 1.6 1.6 0 0 1 1.6 1.6z" vector-effect="non-scaling-stroke" style="-inkscape-stroke:hairline"/>
  <path d="m256.6 105a1.6 1.6 0 0 1-1.6 1.6 1.6 1.6 0 0 1-1.6-1.6 1.6 1.6 0 0 1 1.6-1.6 1.6 1.6 0 0 1 1.6 1.6z" vector-effect="non-scaling-stroke" style="-inkscape-stroke:hairline"/>
  <path d="m226.6 105a1.6 1.6 0 0 1-1.6 1.6 1.6 1.6 0 0 1-1.6-1.6 1.6 1.6 0 0 1 1.6-1.6 1.6 1.6 0 0 1 1.6 1.6z" vector-effect="non-scaling-stroke" style="-inkscape-stroke:hairline"/>
  <path d="m196.6 105a1.6 1.6 0 0 1-1.6 1.6 1.6 1.6 0 0 1-1.6-1.6 1.6 1.6 0 0 1 1.6-1.6 1.6 1.6 0 0 1 1.6 1.6z" vector-effect="non-scaling-stroke" style="-inkscape-stroke:hairline"/>
  <path d="m166.6 105a1.6 1.6 0 0 1-1.6 1.6 1.6 1.6 0 0 1-1.6-1.6 1.6 1.6 0 0 1 1.6-1.6 1.6 1.6 0 0 1 1.6 1.6z" vector-effect="non-scaling-stroke" style="-inkscape-stroke:hairline"/>
  <path d="m136.6 105a1.6 1.6 0 0 1-1.6 1.6 1.6 1.6 0 0 1-1.6-1.6 1.6 1.6 0 0 1 1.6-1.6 1.6 1.6 0 0 1 1.6 1.6z" vector-effect="non-scaling-stroke" style="-inkscape-stroke:hairline"/>
  <path d="m106.6 105a1.6 1.6 0 0 1-1.6 1.6 1.6 1.6 0 0 1-1.6-1.6 1.6 1.6 0 0 1 1.6-1.6 1.6 1.6 0 0 1 1.6 1.6z" vector-effect="non-scaling-stroke" style="-inkscape-stroke:hairline"/>
  <path d="m76.6 105a1.6 1.6 0 0 1-1.6 1.6 1.6 1.6 0 0 1-1.6-1.6 1.6 1.6 0 0 1 1.6-1.6 1.6 1.6 0 0 1 1.6 1.6z" vector-effect="non-scaling-stroke" style="-inkscape-stroke:hairline"/>
  <path d="m46.6 105a1.6 1.6 0 0 1-1.6 1.6 1.6 1.6 0 0 1-1.6-1.6 1.6 1.6 0 0 1 1.6-1.6 1.6 1.6 0 0 1 1.6 1.6z" vector-effect="non-scaling-stroke" style="-inkscape-stroke:hairline"/>
  <path d="m571.6 90a1.6 1.6 0 0 1-1.6 1.6 1.6 1.6 0 0 1-1.6-1.6 1.6 1.6 0 0 1 1.6-1.6 1.6 1.6 0 0 1 1.6 1.6z" vector-effect="non-scaling-stroke" style="-inkscape-stroke:hairline"/>
  <path d="m541.6 90a1.6 1.6 0 0 1-1.6 1.6 1.6 1.6 0 0 1-1.6-1.6 1.6 1.6 0 0 1 1.6-1.6 1.6 1.6 0 0 1 1.6 1.6z" vector-effect="non-scaling-stroke" style="-inkscape-stroke:hairline"/>
  <path d="m511.6 90a1.6 1.6 0 0 1-1.6 1.6 1.6 1.6 0 0 1-1.6-1.6 1.6 1.6 0 0 1 1.6-1.6 1.6 1.6 0 0 1 1.6 1.6z" vector-effect="non-scaling-stroke" style="-inkscape-stroke:hairline"/>
  <path d="m481.6 90a1.6 1.6 0 0 1-1.6 1.6 1.6 1.6 0 0 1-1.6-1.6 1.6 1.6 0 0 1 1.6-1.6 1.6 1.6 0 0 1 1.6 1.6z" vector-effect="non-scaling-stroke" style="-inkscape-stroke:hairline"/>
  <path d="m451.6 90a1.6 1.6 0 0 1-1.6 1.6 1.6 1.6 0 0 1-1.6-1.6 1.6 1.6 0 0 1 1.6-1.6 1.6 1.6 0 0 1 1.6 1.6z" vector-effect="non-scaling-stroke" style="-inkscape-stroke:hairline"/>
  <path d="m421.6 90a1.6 1.6 0 0 1-1.6 1.6 1.6 1.6 0 0 1-1.6-1.6 1.6 1.6 0 0 1 1.6-1.6 1.6 1.6 0 0 1 1.6 1.6z" vector-effect="non-scaling-stroke" style="-inkscape-stroke:hairline"/>
  <path d="m391.6 90a1.6 1.6 0 0 1-1.6 1.6 1.6 1.6 0 0 1-1.6-1.6 1.6 1.6 0 0 1 1.6-1.6 1.6 1.6 0 0 1 1.6 1.6z" vector-effect="non-scaling-stroke" style="-inkscape-stroke:hairline"/>
  <path d="m361.6 90a1.6 1.6 0 0 1-1.6 1.6 1.6 1.6 0 0 1-1.6-1.6 1.6 1.6 0 0 1 1.6-1.6 1.6 1.6 0 0 1 1.6 1.6z" vector-effect="non-scaling-stroke" style="-inkscape-stroke:hairline"/>
  <path d="m331.6 90a1.6 1.6 0 0 1-1.6 1.6 1.6 1.6 0 0 1-1.6-1.6 1.6 1.6 0 0 1 1.6-1.6 1.6 1.6 0 0 1 1.6 1.6z" vector-effect="non-scaling-stroke" style="-inkscape-stroke:hairline"/>
  <path d="m301.6 90a1.6 1.6 0 0 1-1.6 1.6 1.6 1.6 0 0 1-1.6-1.6 1.6 1.6 0 0 1 1.6-1.6 1.6 1.6 0 0 1 1.6 1.6z" vector-effect="non-scaling-stroke" style="-inkscape-stroke:hairline"/>
  <path d="m271.6 90a1.6 1.6 0 0 1-1.6 1.6 1.6 1.6 0 0 1-1.6-1.6 1.6 1.6 0 0 1 1.6-1.6 1.6 1.6 0 0 1 1.6 1.6z" vector-effect="non-scaling-stroke" style="-inkscape-stroke:hairline"/>
  <path d="m241.6 90a1.6 1.6 0 0 1-1.6 1.6 1.6 1.6 0 0 1-1.6-1.6 1.6 1.6 0 0 1 1.6-1.6 1.6 1.6 0 0 1 1.6 1.6z" vector-effect="non-scaling-stroke" style="-inkscape-stroke:hairline"/>
  <path d="m211.6 90a1.6 1.6 0 0 1-1.6 1.6 1.6 1.6 0 0 1-1.6-1.6 1.6 1.6 0 0 1 1.6-1.6 1.6 1.6 0 0 1 1.6 1.6z" vector-effect="non-scaling-stroke" style="-inkscape-stroke:hairline"/>
  <path d="m181.6 90a1.6 1.6 0 0 1-1.6 1.6 1.6 1.6 0 0 1-1.6-1.6 1.6 1.6 0 0 1 1.6-1.6 1.6 1.6 0 0 1 1.6 1.6z" vector-effect="non-scaling-stroke" style="-inkscape-stroke:hairline"/>
  <path d="m151.6 90a1.6 1.6 0 0 1-1.6 1.6 1.6 1.6 0 0 1-1.6-1.6 1.6 1.6 0 0 1 1.6-1.6 1.6 1.6 0 0 1 1.6 1.6z" vector-effect="non-scaling-stroke" style="-inkscape-stroke:hairline"/>
  <path d="m121.6 90a1.6 1.6 0 0 1-1.6 1.6 1.6 1.6 0 0 1-1.6-1.6 1.6 1.6 0 0 1 1.6-1.6 1.6 1.6 0 0 1 1.6 1.6z" vector-effect="non-scaling-stroke" style="-inkscape-stroke:hairline"/>
  <path d="m91.6 90a1.6 1.6 0 0 1-1.6 1.6 1.6 1.6 0 0 1-1.6-1.6 1.6 1.6 0 0 1 1.6-1.6 1.6 1.6 0 0 1 1.6 1.6z" vector-effect="non-scaling-stroke" style="-inkscape-stroke:hairline"/>
  <path d="m61.6 90a1.6 1.6 0 0 1-1.6 1.6 1.6 1.6 0 0 1-1.6-1.6 1.6 1.6 0 0 1 1.6-1.6 1.6 1.6 0 0 1 1.6 1.6z" vector-effect="non-scaling-stroke" style="-inkscape-stroke:hairline"/>
  <path d="m31.6 90a1.6 1.6 0 0 1-1.6 1.6 1.6 1.6 0 0 1-1.6-1.6 1.6 1.6 0 0 1 1.6-1.6 1.6 1.6 0 0 1 1.6 1.6z" vector-effect="non-scaling-stroke" style="-inkscape-stroke:hairline"/>
  <path d="m556.6 75a1.6 1.6 0 0 1-1.6 1.6 1.6 1.6 0 0 1-1.6-1.6 1.6 1.6 0 0 1 1.6-1.6 1.6 1.6 0 0 1 1.6 1.6z" vector-effect="non-scaling-stroke" style="-inkscape-stroke:hairline"/>
  <path d="m526.6 75a1.6 1.6 0 0 1-1.6 1.6 1.6 1.6 0 0 1-1.6-1.6 1.6 1.6 0 0 1 1.6-1.6 1.6 1.6 0 0 1 1.6 1.6z" vector-effect="non-scaling-stroke" style="-inkscape-stroke:hairline"/>
  <path d="m496.6 75a1.6 1.6 0 0 1-1.6 1.6 1.6 1.6 0 0 1-1.6-1.6 1.6 1.6 0 0 1 1.6-1.6 1.6 1.6 0 0 1 1.6 1.6z" vector-effect="non-scaling-stroke" style="-inkscape-stroke:hairline"/>
  <path d="m466.6 75a1.6 1.6 0 0 1-1.6 1.6 1.6 1.6 0 0 1-1.6-1.6 1.6 1.6 0 0 1 1.6-1.6 1.6 1.6 0 0 1 1.6 1.6z" vector-effect="non-scaling-stroke" style="-inkscape-stroke:hairline"/>
  <path d="m436.6 75a1.6 1.6 0 0 1-1.6 1.6 1.6 1.6 0 0 1-1.6-1.6 1.6 1.6 0 0 1 1.6-1.6 1.6 1.6 0 0 1 1.6 1.6z" vector-effect="non-scaling-stroke" style="-inkscape-stroke:hairline"/>
  <path d="m406.6 75a1.6 1.6 0 0 1-1.6 1.6 1.6 1.6 0 0 1-1.6-1.6 1.6 1.6 0 0 1 1.6-1.6 1.6 1.6 0 0 1 1.6 1.6z" vector-effect="non-scaling-stroke" style="-inkscape-stroke:hairline"/>
  <path d="m376.6 75a1.6 1.6 0 0 1-1.6 1.6 1.6 1.6 0 0 1-1.6-1.6 1.6 1.6 0 0 1 1.6-1.6 1.6 1.6 0 0 1 1.6 1.6z" vector-effect="non-scaling-stroke" style="-inkscape-stroke:hairline"/>
  <path d="m346.6 75a1.6 1.6 0 0 1-1.6 1.6 1.6 1.6 0 0 1-1.6-1.6 1.6 1.6 0 0 1 1.6-1.6 1.6 1.6 0 0 1 1.6 1.6z" vector-effect="non-scaling-stroke" style="-inkscape-stroke:hairline"/>
  <path d="m256.6 75a1.6 1.6 0 0 1-1.6 1.6 1.6 1.6 0 0 1-1.6-1.6 1.6 1.6 0 0 1 1.6-1.6 1.6 1.6 0 0 1 1.6 1.6z" vector-effect="non-scaling-stroke" style="-inkscape-stroke:hairline"/>
  <path d="m226.6 75a1.6 1.6 0 0 1-1.6 1.6 1.6 1.6 0 0 1-1.6-1.6 1.6 1.6 0 0 1 1.6-1.6 1.6 1.6 0 0 1 1.6 1.6z" vector-effect="non-scaling-stroke" style="-inkscape-stroke:hairline"/>
  <path d="m196.6 75a1.6 1.6 0 0 1-1.6 1.6 1.6 1.6 0 0 1-1.6-1.6 1.6 1.6 0 0 1 1.6-1.6 1.6 1.6 0 0 1 1.6 1.6z" vector-effect="non-scaling-stroke" style="-inkscape-stroke:hairline"/>
  <path d="m166.6 75a1.6 1.6 0 0 1-1.6 1.6 1.6 1.6 0 0 1-1.6-1.6 1.6 1.6 0 0 1 1.6-1.6 1.6 1.6 0 0 1 1.6 1.6z" vector-effect="non-scaling-stroke" style="-inkscape-stroke:hairline"/>
  <path d="m136.6 75a1.6 1.6 0 0 1-1.6 1.6 1.6 1.6 0 0 1-1.6-1.6 1.6 1.6 0 0 1 1.6-1.6 1.6 1.6 0 0 1 1.6 1.6z" vector-effect="non-scaling-stroke" style="-inkscape-stroke:hairline"/>
  <path d="m106.6 75a1.6 1.6 0 0 1-1.6 1.6 1.6 1.6 0 0 1-1.6-1.6 1.6 1.6 0 0 1 1.6-1.6 1.6 1.6 0 0 1 1.6 1.6z" vector-effect="non-scaling-stroke" style="-inkscape-stroke:hairline"/>
  <path d="m76.6 75a1.6 1.6 0 0 1-1.6 1.6 1.6 1.6 0 0 1-1.6-1.6 1.6 1.6 0 0 1 1.6-1.6 1.6 1.6 0 0 1 1.6 1.6z" vector-effect="non-scaling-stroke" style="-inkscape-stroke:hairline"/>
  <path d="m46.6 75a1.6 1.6 0 0 1-1.6 1.6 1.6 1.6 0 0 1-1.6-1.6 1.6 1.6 0 0 1 1.6-1.6 1.6 1.6 0 0 1 1.6 1.6z" vector-effect="non-scaling-stroke" style="-inkscape-stroke:hairline"/>
  <path d="m571.6 60a1.6 1.6 0 0 1-1.6 1.6 1.6 1.6 0 0 1-1.6-1.6 1.6 1.6 0 0 1 1.6-1.6 1.6 1.6 0 0 1 1.6 1.6z" vector-effect="non-scaling-stroke" style="-inkscape-stroke:hairline"/>
  <path d="m541.6 60a1.6 1.6 0 0 1-1.6 1.6 1.6 1.6 0 0 1-1.6-1.6 1.6 1.6 0 0 1 1.6-1.6 1.6 1.6 0 0 1 1.6 1.6z" vector-effect="non-scaling-stroke" style="-inkscape-stroke:hairline"/>
  <path d="m511.6 60a1.6 1.6 0 0 1-1.6 1.6 1.6 1.6 0 0 1-1.6-1.6 1.6 1.6 0 0 1 1.6-1.6 1.6 1.6 0 0 1 1.6 1.6z" vector-effect="non-scaling-stroke" style="-inkscape-stroke:hairline"/>
  <path d="m481.6 60a1.6 1.6 0 0 1-1.6 1.6 1.6 1.6 0 0 1-1.6-1.6 1.6 1.6 0 0 1 1.6-1.6 1.6 1.6 0 0 1 1.6 1.6z" vector-effect="non-scaling-stroke" style="-inkscape-stroke:hairline"/>
  <path d="m451.6 60a1.6 1.6 0 0 1-1.6 1.6 1.6 1.6 0 0 1-1.6-1.6 1.6 1.6 0 0 1 1.6-1.6 1.6 1.6 0 0 1 1.6 1.6z" vector-effect="non-scaling-stroke" style="-inkscape-stroke:hairline"/>
  <path d="m421.6 60a1.6 1.6 0 0 1-1.6 1.6 1.6 1.6 0 0 1-1.6-1.6 1.6 1.6 0 0 1 1.6-1.6 1.6 1.6 0 0 1 1.6 1.6z" vector-effect="non-scaling-stroke" style="-inkscape-stroke:hairline"/>
  <path d="m391.6 60a1.6 1.6 0 0 1-1.6 1.6 1.6 1.6 0 0 1-1.6-1.6 1.6 1.6 0 0 1 1.6-1.6 1.6 1.6 0 0 1 1.6 1.6z" vector-effect="non-scaling-stroke" style="-inkscape-stroke:hairline"/>
  <path d="m361.6 60a1.6 1.6 0 0 1-1.6 1.6 1.6 1.6 0 0 1-1.6-1.6 1.6 1.6 0 0 1 1.6-1.6 1.6 1.6 0 0 1 1.6 1.6z" vector-effect="non-scaling-stroke" style="-inkscape-stroke:hairline"/>
  <path d="m331.6 60a1.6 1.6 0 0 1-1.6 1.6 1.6 1.6 0 0 1-1.6-1.6 1.6 1.6 0 0 1 1.6-1.6 1.6 1.6 0 0 1 1.6 1.6z" vector-effect="non-scaling-stroke" style="-inkscape-stroke:hairline"/>
  <path d="m301.6 60a1.6 1.6 0 0 1-1.6 1.6 1.6 1.6 0 0 1-1.6-1.6 1.6 1.6 0 0 1 1.6-1.6 1.6 1.6 0 0 1 1.6 1.6z" vector-effect="non-scaling-stroke" style="-inkscape-stroke:hairline"/>
  <path d="m271.6 60a1.6 1.6 0 0 1-1.6 1.6 1.6 1.6 0 0 1-1.6-1.6 1.6 1.6 0 0 1 1.6-1.6 1.6 1.6 0 0 1 1.6 1.6z" vector-effect="non-scaling-stroke" style="-inkscape-stroke:hairline"/>
  <path d="m241.6 60a1.6 1.6 0 0 1-1.6 1.6 1.6 1.6 0 0 1-1.6-1.6 1.6 1.6 0 0 1 1.6-1.6 1.6 1.6 0 0 1 1.6 1.6z" vector-effect="non-scaling-stroke" style="-inkscape-stroke:hairline"/>
  <path d="m211.6 60a1.6 1.6 0 0 1-1.6 1.6 1.6 1.6 0 0 1-1.6-1.6 1.6 1.6 0 0 1 1.6-1.6 1.6 1.6 0 0 1 1.6 1.6z" vector-effect="non-scaling-stroke" style="-inkscape-stroke:hairline"/>
  <path d="m181.6 60a1.6 1.6 0 0 1-1.6 1.6 1.6 1.6 0 0 1-1.6-1.6 1.6 1.6 0 0 1 1.6-1.6 1.6 1.6 0 0 1 1.6 1.6z" vector-effect="non-scaling-stroke" style="-inkscape-stroke:hairline"/>
  <path d="m151.6 60a1.6 1.6 0 0 1-1.6 1.6 1.6 1.6 0 0 1-1.6-1.6 1.6 1.6 0 0 1 1.6-1.6 1.6 1.6 0 0 1 1.6 1.6z" vector-effect="non-scaling-stroke" style="-inkscape-stroke:hairline"/>
  <path d="m121.6 60a1.6 1.6 0 0 1-1.6 1.6 1.6 1.6 0 0 1-1.6-1.6 1.6 1.6 0 0 1 1.6-1.6 1.6 1.6 0 0 1 1.6 1.6z" vector-effect="non-scaling-stroke" style="-inkscape-stroke:hairline"/>
  <path d="m91.6 60a1.6 1.6 0 0 1-1.6 1.6 1.6 1.6 0 0 1-1.6-1.6 1.6 1.6 0 0 1 1.6-1.6 1.6 1.6 0 0 1 1.6 1.6z" vector-effect="non-scaling-stroke" style="-inkscape-stroke:hairline"/>
  <path d="m61.6 60a1.6 1.6 0 0 1-1.6 1.6 1.6 1.6 0 0 1-1.6-1.6 1.6 1.6 0 0 1 1.6-1.6 1.6 1.6 0 0 1 1.6 1.6z" vector-effect="non-scaling-stroke" style="-inkscape-stroke:hairline"/>
  <path d="m31.6 60a1.6 1.6 0 0 1-1.6 1.6 1.6 1.6 0 0 1-1.6-1.6 1.6 1.6 0 0 1 1.6-1.6 1.6 1.6 0 0 1 1.6 1.6z" vector-effect="non-scaling-stroke" style="-inkscape-stroke:hairline"/>
  <path d="m586.6 45a1.6 1.6 0 0 1-1.6 1.6 1.6 1.6 0 0 1-1.6-1.6 1.6 1.6 0 0 1 1.6-1.6 1.6 1.6 0 0 1 1.6 1.6z" vector-effect="non-scaling-stroke" style="-inkscape-stroke:hairline"/>
  <path d="m556.6 45a1.6 1.6 0 0 1-1.6 1.6 1.6 1.6 0 0 1-1.6-1.6 1.6 1.6 0 0 1 1.6-1.6 1.6 1.6 0 0 1 1.6 1.6z" vector-effect="non-scaling-stroke" style="-inkscape-stroke:hairline"/>
  <path d="m526.6 45a1.6 1.6 0 0 1-1.6 1.6 1.6 1.6 0 0 1-1.6-1.6 1.6 1.6 0 0 1 1.6-1.6 1.6 1.6 0 0 1 1.6 1.6z" vector-effect="non-scaling-stroke" style="-inkscape-stroke:hairline"/>
  <path d="m496.6 45a1.6 1.6 0 0 1-1.6 1.6 1.6 1.6 0 0 1-1.6-1.6 1.6 1.6 0 0 1 1.6-1.6 1.6 1.6 0 0 1 1.6 1.6z" vector-effect="non-scaling-stroke" style="-inkscape-stroke:hairline"/>
  <path d="m466.6 45a1.6 1.6 0 0 1-1.6 1.6 1.6 1.6 0 0 1-1.6-1.6 1.6 1.6 0 0 1 1.6-1.6 1.6 1.6 0 0 1 1.6 1.6z" vector-effect="non-scaling-stroke" style="-inkscape-stroke:hairline"/>
  <path d="m436.6 45a1.6 1.6 0 0 1-1.6 1.6 1.6 1.6 0 0 1-1.6-1.6 1.6 1.6 0 0 1 1.6-1.6 1.6 1.6 0 0 1 1.6 1.6z" vector-effect="non-scaling-stroke" style="-inkscape-stroke:hairline"/>
  <path d="m406.6 45a1.6 1.6 0 0 1-1.6 1.6 1.6 1.6 0 0 1-1.6-1.6 1.6 1.6 0 0 1 1.6-1.6 1.6 1.6 0 0 1 1.6 1.6z" vector-effect="non-scaling-stroke" style="-inkscape-stroke:hairline"/>
  <path d="m376.6 45a1.6 1.6 0 0 1-1.6 1.6 1.6 1.6 0 0 1-1.6-1.6 1.6 1.6 0 0 1 1.6-1.6 1.6 1.6 0 0 1 1.6 1.6z" vector-effect="non-scaling-stroke" style="-inkscape-stroke:hairline"/>
  <path d="m346.6 45a1.6 1.6 0 0 1-1.6 1.6 1.6 1.6 0 0 1-1.6-1.6 1.6 1.6 0 0 1 1.6-1.6 1.6 1.6 0 0 1 1.6 1.6z" vector-effect="non-scaling-stroke" style="-inkscape-stroke:hairline"/>
  <path d="m256.6 45a1.6 1.6 0 0 1-1.6 1.6 1.6 1.6 0 0 1-1.6-1.6 1.6 1.6 0 0 1 1.6-1.6 1.6 1.6 0 0 1 1.6 1.6z" vector-effect="non-scaling-stroke" style="-inkscape-stroke:hairline"/>
  <path d="m226.6 45a1.6 1.6 0 0 1-1.6 1.6 1.6 1.6 0 0 1-1.6-1.6 1.6 1.6 0 0 1 1.6-1.6 1.6 1.6 0 0 1 1.6 1.6z" vector-effect="non-scaling-stroke" style="-inkscape-stroke:hairline"/>
  <path d="m196.6 45a1.6 1.6 0 0 1-1.6 1.6 1.6 1.6 0 0 1-1.6-1.6 1.6 1.6 0 0 1 1.6-1.6 1.6 1.6 0 0 1 1.6 1.6z" vector-effect="non-scaling-stroke" style="-inkscape-stroke:hairline"/>
  <path d="m166.6 45a1.6 1.6 0 0 1-1.6 1.6 1.6 1.6 0 0 1-1.6-1.6 1.6 1.6 0 0 1 1.6-1.6 1.6 1.6 0 0 1 1.6 1.6z" vector-effect="non-scaling-stroke" style="-inkscape-stroke:hairline"/>
  <path d="m136.6 45a1.6 1.6 0 0 1-1.6 1.6 1.6 1.6 0 0 1-1.6-1.6 1.6 1.6 0 0 1 1.6-1.6 1.6 1.6 0 0 1 1.6 1.6z" vector-effect="non-scaling-stroke" style="-inkscape-stroke:hairline"/>
  <path d="m106.6 45a1.6 1.6 0 0 1-1.6 1.6 1.6 1.6 0 0 1-1.6-1.6 1.6 1.6 0 0 1 1.6-1.6 1.6 1.6 0 0 1 1.6 1.6z" vector-effect="non-scaling-stroke" style="-inkscape-stroke:hairline"/>
  <path d="m76.6 45a1.6 1.6 0 0 1-1.6 1.6 1.6 1.6 0 0 1-1.6-1.6 1.6 1.6 0 0 1 1.6-1.6 1.6 1.6 0 0 1 1.6 1.6z" vector-effect="non-scaling-stroke" style="-inkscape-stroke:hairline"/>
  <path d="m46.6 45a1.6 1.6 0 0 1-1.6 1.6 1.6 1.6 0 0 1-1.6-1.6 1.6 1.6 0 0 1 1.6-1.6 1.6 1.6 0 0 1 1.6 1.6z" vector-effect="non-scaling-stroke" style="-inkscape-stroke:hairline"/>
  <path d="m16.6 45a1.6 1.6 0 0 1-1.6 1.6 1.6 1.6 0 0 1-1.6-1.6 1.6 1.6 0 0 1 1.6-1.6 1.6 1.6 0 0 1 1.6 1.6z" vector-effect="non-scaling-stroke" style="-inkscape-stroke:hairline"/>
  <path d="m571.6 30a1.6 1.6 0 0 1-1.6 1.6 1.6 1.6 0 0 1-1.6-1.6 1.6 1.6 0 0 1 1.6-1.6 1.6 1.6 0 0 1 1.6 1.6z" vector-effect="non-scaling-stroke" style="-inkscape-stroke:hairline"/>
  <path d="m541.6 30a1.6 1.6 0 0 1-1.6 1.6 1.6 1.6 0 0 1-1.6-1.6 1.6 1.6 0 0 1 1.6-1.6 1.6 1.6 0 0 1 1.6 1.6z" vector-effect="non-scaling-stroke" style="-inkscape-stroke:hairline"/>
  <path d="m511.6 30a1.6 1.6 0 0 1-1.6 1.6 1.6 1.6 0 0 1-1.6-1.6 1.6 1.6 0 0 1 1.6-1.6 1.6 1.6 0 0 1 1.6 1.6z" vector-effect="non-scaling-stroke" style="-inkscape-stroke:hairline"/>
  <path d="m481.6 30a1.6 1.6 0 0 1-1.6 1.6 1.6 1.6 0 0 1-1.6-1.6 1.6 1.6 0 0 1 1.6-1.6 1.6 1.6 0 0 1 1.6 1.6z" vector-effect="non-scaling-stroke" style="-inkscape-stroke:hairline"/>
  <path d="m451.6 30a1.6 1.6 0 0 1-1.6 1.6 1.6 1.6 0 0 1-1.6-1.6 1.6 1.6 0 0 1 1.6-1.6 1.6 1.6 0 0 1 1.6 1.6z" vector-effect="non-scaling-stroke" style="-inkscape-stroke:hairline"/>
  <path d="m421.6 30a1.6 1.6 0 0 1-1.6 1.6 1.6 1.6 0 0 1-1.6-1.6 1.6 1.6 0 0 1 1.6-1.6 1.6 1.6 0 0 1 1.6 1.6z" vector-effect="non-scaling-stroke" style="-inkscape-stroke:hairline"/>
  <path d="m391.6 30a1.6 1.6 0 0 1-1.6 1.6 1.6 1.6 0 0 1-1.6-1.6 1.6 1.6 0 0 1 1.6-1.6 1.6 1.6 0 0 1 1.6 1.6z" vector-effect="non-scaling-stroke" style="-inkscape-stroke:hairline"/>
  <path d="m361.6 30a1.6 1.6 0 0 1-1.6 1.6 1.6 1.6 0 0 1-1.6-1.6 1.6 1.6 0 0 1 1.6-1.6 1.6 1.6 0 0 1 1.6 1.6z" vector-effect="non-scaling-stroke" style="-inkscape-stroke:hairline"/>
  <path d="m331.6 30a1.6 1.6 0 0 1-1.6 1.6 1.6 1.6 0 0 1-1.6-1.6 1.6 1.6 0 0 1 1.6-1.6 1.6 1.6 0 0 1 1.6 1.6z" vector-effect="non-scaling-stroke" style="-inkscape-stroke:hairline"/>
  <path d="m301.6 30a1.6 1.6 0 0 1-1.6 1.6 1.6 1.6 0 0 1-1.6-1.6 1.6 1.6 0 0 1 1.6-1.6 1.6 1.6 0 0 1 1.6 1.6z" vector-effect="non-scaling-stroke" style="-inkscape-stroke:hairline"/>
  <path d="m271.6 30a1.6 1.6 0 0 1-1.6 1.6 1.6 1.6 0 0 1-1.6-1.6 1.6 1.6 0 0 1 1.6-1.6 1.6 1.6 0 0 1 1.6 1.6z" vector-effect="non-scaling-stroke" style="-inkscape-stroke:hairline"/>
  <path d="m241.6 30a1.6 1.6 0 0 1-1.6 1.6 1.6 1.6 0 0 1-1.6-1.6 1.6 1.6 0 0 1 1.6-1.6 1.6 1.6 0 0 1 1.6 1.6z" vector-effect="non-scaling-stroke" style="-inkscape-stroke:hairline"/>
  <path d="m211.6 30a1.6 1.6 0 0 1-1.6 1.6 1.6 1.6 0 0 1-1.6-1.6 1.6 1.6 0 0 1 1.6-1.6 1.6 1.6 0 0 1 1.6 1.6z" vector-effect="non-scaling-stroke" style="-inkscape-stroke:hairline"/>
  <path d="m181.6 30a1.6 1.6 0 0 1-1.6 1.6 1.6 1.6 0 0 1-1.6-1.6 1.6 1.6 0 0 1 1.6-1.6 1.6 1.6 0 0 1 1.6 1.6z" vector-effect="non-scaling-stroke" style="-inkscape-stroke:hairline"/>
  <path d="m151.6 30a1.6 1.6 0 0 1-1.6 1.6 1.6 1.6 0 0 1-1.6-1.6 1.6 1.6 0 0 1 1.6-1.6 1.6 1.6 0 0 1 1.6 1.6z" vector-effect="non-scaling-stroke" style="-inkscape-stroke:hairline"/>
  <path d="m121.6 30a1.6 1.6 0 0 1-1.6 1.6 1.6 1.6 0 0 1-1.6-1.6 1.6 1.6 0 0 1 1.6-1.6 1.6 1.6 0 0 1 1.6 1.6z" vector-effect="non-scaling-stroke" style="-inkscape-stroke:hairline"/>
  <path d="m91.6 30a1.6 1.6 0 0 1-1.6 1.6 1.6 1.6 0 0 1-1.6-1.6 1.6 1.6 0 0 1 1.6-1.6 1.6 1.6 0 0 1 1.6 1.6z" vector-effect="non-scaling-stroke" style="-inkscape-stroke:hairline"/>
  <path d="m61.6 30a1.6 1.6 0 0 1-1.6 1.6 1.6 1.6 0 0 1-1.6-1.6 1.6 1.6 0 0 1 1.6-1.6 1.6 1.6 0 0 1 1.6 1.6z" vector-effect="non-scaling-stroke" style="-inkscape-stroke:hairline"/>
  <path d="m31.6 30a1.6 1.6 0 0 1-1.6 1.6 1.6 1.6 0 0 1-1.6-1.6 1.6 1.6 0 0 1 1.6-1.6 1.6 1.6 0 0 1 1.6 1.6z" vector-effect="non-scaling-stroke" style="-inkscape-stroke:hairline"/>
  <path d="m556.6 15a1.6 1.6 0 0 1-1.6 1.6 1.6 1.6 0 0 1-1.6-1.6 1.6 1.6 0 0 1 1.6-1.6 1.6 1.6 0 0 1 1.6 1.6z" vector-effect="non-scaling-stroke" style="-inkscape-stroke:hairline"/>
  <path d="m526.6 15a1.6 1.6 0 0 1-1.6 1.6 1.6 1.6 0 0 1-1.6-1.6 1.6 1.6 0 0 1 1.6-1.6 1.6 1.6 0 0 1 1.6 1.6z" vector-effect="non-scaling-stroke" style="-inkscape-stroke:hairline"/>
  <path d="m496.6 15a1.6 1.6 0 0 1-1.6 1.6 1.6 1.6 0 0 1-1.6-1.6 1.6 1.6 0 0 1 1.6-1.6 1.6 1.6 0 0 1 1.6 1.6z" vector-effect="non-scaling-stroke" style="-inkscape-stroke:hairline"/>
  <path d="m466.6 15a1.6 1.6 0 0 1-1.6 1.6 1.6 1.6 0 0 1-1.6-1.6 1.6 1.6 0 0 1 1.6-1.6 1.6 1.6 0 0 1 1.6 1.6z" vector-effect="non-scaling-stroke" style="-inkscape-stroke:hairline"/>
  <path d="m436.6 15a1.6 1.6 0 0 1-1.6 1.6 1.6 1.6 0 0 1-1.6-1.6 1.6 1.6 0 0 1 1.6-1.6 1.6 1.6 0 0 1 1.6 1.6z" vector-effect="non-scaling-stroke" style="-inkscape-stroke:hairline"/>
  <path d="m406.6 15a1.6 1.6 0 0 1-1.6 1.6 1.6 1.6 0 0 1-1.6-1.6 1.6 1.6 0 0 1 1.6-1.6 1.6 1.6 0 0 1 1.6 1.6z" vector-effect="non-scaling-stroke" style="-inkscape-stroke:hairline"/>
  <path d="m376.6 15a1.6 1.6 0 0 1-1.6 1.6 1.6 1.6 0 0 1-1.6-1.6 1.6 1.6 0 0 1 1.6-1.6 1.6 1.6 0 0 1 1.6 1.6z" vector-effect="non-scaling-stroke" style="-inkscape-stroke:hairline"/>
  <path d="m346.6 15a1.6 1.6 0 0 1-1.6 1.6 1.6 1.6 0 0 1-1.6-1.6 1.6 1.6 0 0 1 1.6-1.6 1.6 1.6 0 0 1 1.6 1.6z" vector-effect="non-scaling-stroke" style="-inkscape-stroke:hairline"/>
  <path d="m316.6 15a1.6 1.6 0 0 1-1.6 1.6 1.6 1.6 0 0 1-1.6-1.6 1.6 1.6 0 0 1 1.6-1.6 1.6 1.6 0 0 1 1.6 1.6z" vector-effect="non-scaling-stroke" style="-inkscape-stroke:hairline"/>
  <path d="m286.6 15a1.6 1.6 0 0 1-1.6 1.6 1.6 1.6 0 0 1-1.6-1.6 1.6 1.6 0 0 1 1.6-1.6 1.6 1.6 0 0 1 1.6 1.6z" vector-effect="non-scaling-stroke" style="-inkscape-stroke:hairline"/>
  <path d="m256.6 15a1.6 1.6 0 0 1-1.6 1.6 1.6 1.6 0 0 1-1.6-1.6 1.6 1.6 0 0 1 1.6-1.6 1.6 1.6 0 0 1 1.6 1.6z" vector-effect="non-scaling-stroke" style="-inkscape-stroke:hairline"/>
  <path d="m226.6 15a1.6 1.6 0 0 1-1.6 1.6 1.6 1.6 0 0 1-1.6-1.6 1.6 1.6 0 0 1 1.6-1.6 1.6 1.6 0 0 1 1.6 1.6z" vector-effect="non-scaling-stroke" style="-inkscape-stroke:hairline"/>
  <path d="m196.6 15a1.6 1.6 0 0 1-1.6 1.6 1.6 1.6 0 0 1-1.6-1.6 1.6 1.6 0 0 1 1.6-1.6 1.6 1.6 0 0 1 1.6 1.6z" vector-effect="non-scaling-stroke" style="-inkscape-stroke:hairline"/>
  <path d="m166.6 15a1.6 1.6 0 0 1-1.6 1.6 1.6 1.6 0 0 1-1.6-1.6 1.6 1.6 0 0 1 1.6-1.6 1.6 1.6 0 0 1 1.6 1.6z" vector-effect="non-scaling-stroke" style="-inkscape-stroke:hairline"/>
  <path d="m136.6 15a1.6 1.6 0 0 1-1.6 1.6 1.6 1.6 0 0 1-1.6-1.6 1.6 1.6 0 0 1 1.6-1.6 1.6 1.6 0 0 1 1.6 1.6z" vector-effect="non-scaling-stroke" style="-inkscape-stroke:hairline"/>
  <path d="m106.6 15a1.6 1.6 0 0 1-1.6 1.6 1.6 1.6 0 0 1-1.6-1.6 1.6 1.6 0 0 1 1.6-1.6 1.6 1.6 0 0 1 1.6 1.6z" vector-effect="non-scaling-stroke" style="-inkscape-stroke:hairline"/>
  <path d="m76.6 15a1.6 1.6 0 0 1-1.6 1.6 1.6 1.6 0 0 1-1.6-1.6 1.6 1.6 0 0 1 1.6-1.6 1.6 1.6 0 0 1 1.6 1.6z" vector-effect="non-scaling-stroke" style="-inkscape-stroke:hairline"/>
  <path d="m46.6 15a1.6 1.6 0 0 1-1.6 1.6 1.6 1.6 0 0 1-1.6-1.6 1.6 1.6 0 0 1 1.6-1.6 1.6 1.6 0 0 1 1.6 1.6z" vector-effect="non-scaling-stroke" style="-inkscape-stroke:hairline"/>
  <path d="m5 0h590" vector-effect="non-scaling-stroke" style="-inkscape-stroke:hairline"/>
  <path d="m574 120h-548" stroke-width=".2641" vector-effect="non-scaling-stroke" style="-inkscape-stroke:hairline"/>
  <path d="m5 0-5 5" vector-effect="non-scaling-stroke" style="-inkscape-stroke:hairline"/>
  <path d="m-3.6385e-8 71v-66" vector-effect="non-scaling-stroke" style="-inkscape-stroke:hairline"/>
  <path d="m595 0 5 5" vector-effect="non-scaling-stroke" style="-inkscape-stroke:hairline"/>
  <path d="m283.4 44.8a22.579 22.579 0 0 0-5.4 10.5" vector-effect="non-scaling-stroke" style="-inkscape-stroke:hairline"/>
  <path d="m295.3 38a22.426 22.426 0 0 0-10.5 5.4" vector-effect="non-scaling-stroke" style="-inkscape-stroke:hairline"/>
  <path d="m297 38h-1.7" vector-effect="non-scaling-stroke" style="-inkscape-stroke:hairline"/>
  <path d="m284.8 46.6a20.473 20.473 0 0 0-4.8 10.4" vector-effect="non-scaling-stroke" style="-inkscape-stroke:hairline"/>
  <path d="m297 40a20.31 20.31 0 0 0-10.4 4.9" vector-effect="non-scaling-stroke" style="-inkscape-stroke:hairline"/>
  <path d="m278 57v-1.7" vector-effect="non-scaling-stroke" style="-inkscape-stroke:hairline"/>
  <path d="m284.8 46.6a1.5443 1.5443 0 0 0 1.8-1.7" vector-effect="non-scaling-stroke" style="-inkscape-stroke:hairline"/>
  <path d="m284.8 43.4a1.6125 1.6125 0 0 0-1.4 1.4" vector-effect="non-scaling-stroke" style="-inkscape-stroke:hairline"/>
  <path d="m297 40a1 1 0 0 0 0-2" vector-effect="non-scaling-stroke" style="-inkscape-stroke:hairline"/>
  <path d="m278 57a1 1 0 0 0 2 0" vector-effect="non-scaling-stroke" style="-inkscape-stroke:hairline"/>
  <path d="m313.4 44.8a1.5443 1.5443 0 0 0 1.7 1.8" vector-effect="non-scaling-stroke" style="-inkscape-stroke:hairline"/>
  <path d="m322 57v-1.7" vector-effect="non-scaling-stroke" style="-inkscape-stroke:hairline"/>
  <path d="m316.6 44.8a1.6125 1.6125 0 0 0-1.4-1.4" vector-effect="non-scaling-stroke" style="-inkscape-stroke:hairline"/>
  <path d="m320 57a20.31 20.31 0 0 0-4.9-10.4" vector-effect="non-scaling-stroke" style="-inkscape-stroke:hairline"/>
  <path d="m303 38h1.7" vector-effect="non-scaling-stroke" style="-inkscape-stroke:hairline"/>
  <path d="m322 55.3a22.426 22.426 0 0 0-5.4-10.5" vector-effect="non-scaling-stroke" style="-inkscape-stroke:hairline"/>
  <path d="m313.4 44.8a20.473 20.473 0 0 0-10.4-4.8" vector-effect="non-scaling-stroke" style="-inkscape-stroke:hairline"/>
  <path d="m315.2 43.4a22.579 22.579 0 0 0-10.5-5.4" vector-effect="non-scaling-stroke" style="-inkscape-stroke:hairline"/>
  <path d="m303 38a1 1 0 0 0 0 2" vector-effect="non-scaling-stroke" style="-inkscape-stroke:hairline"/>
  <path d="m320 57a1 1 0 0 0 2 0" vector-effect="non-scaling-stroke" style="-inkscape-stroke:hairline"/>
  <path d="m280 63a20.31 20.31 0 0 0 4.9 10.4" vector-effect="non-scaling-stroke" style="-inkscape-stroke:hairline"/>
  <path d="m286.6 75.2a20.473 20.473 0 0 0 10.4 4.8" vector-effect="non-scaling-stroke" style="-inkscape-stroke:hairline"/>
  <path d="m283.4 75.2a1.6125 1.6125 0 0 0 1.4 1.4" vector-effect="non-scaling-stroke" style="-inkscape-stroke:hairline"/>
  <path d="m297 82h-1.7" vector-effect="non-scaling-stroke" style="-inkscape-stroke:hairline"/>
  <path d="m278 64.7a22.426 22.426 0 0 0 5.4 10.5" vector-effect="non-scaling-stroke" style="-inkscape-stroke:hairline"/>
  <path d="m278 63v1.7" vector-effect="non-scaling-stroke" style="-inkscape-stroke:hairline"/>
  <path d="m284.8 76.6a22.579 22.579 0 0 0 10.5 5.4" vector-effect="non-scaling-stroke" style="-inkscape-stroke:hairline"/>
  <path d="m297 82a1 1 0 0 0 0-2" vector-effect="non-scaling-stroke" style="-inkscape-stroke:hairline"/>
  <path d="m280 63a1 1 0 0 0-2 0" vector-effect="non-scaling-stroke" style="-inkscape-stroke:hairline"/>
  <path d="m286.6 75.2a1.5443 1.5443 0 0 0-1.7-1.8" vector-effect="non-scaling-stroke" style="-inkscape-stroke:hairline"/>
  <path d="m303 80a20.31 20.31 0 0 0 10.4-4.9" vector-effect="non-scaling-stroke" style="-inkscape-stroke:hairline"/>
  <path d="m315.2 76.6a1.6125 1.6125 0 0 0 1.4-1.4" vector-effect="non-scaling-stroke" style="-inkscape-stroke:hairline"/>
  <path d="m322 63v1.7" vector-effect="non-scaling-stroke" style="-inkscape-stroke:hairline"/>
  <path d="m316.6 75.2a22.579 22.579 0 0 0 5.4-10.5" vector-effect="non-scaling-stroke" style="-inkscape-stroke:hairline"/>
  <path d="m304.7 82a22.426 22.426 0 0 0 10.5-5.4" vector-effect="non-scaling-stroke" style="-inkscape-stroke:hairline"/>
  <path d="m315.2 73.4a1.5443 1.5443 0 0 0-1.8 1.7" vector-effect="non-scaling-stroke" style="-inkscape-stroke:hairline"/>
  <path d="m303 80a1 1 0 0 0 0 2" vector-effect="non-scaling-stroke" style="-inkscape-stroke:hairline"/>
  <path d="m322 63a1 1 0 0 0-2 0" vector-effect="non-scaling-stroke" style="-inkscape-stroke:hairline"/>
  <path d="m303 82h1.7" vector-effect="non-scaling-stroke" style="-inkscape-stroke:hairline"/>
  <path d="m315.2 73.4a20.473 20.473 0 0 0 4.8-10.4" vector-effect="non-scaling-stroke" style="-inkscape-stroke:hairline"/>
  <path d="m21 115 5 5" vector-effect="non-scaling-stroke" style="-inkscape-stroke:hairline"/>
  <path d="m21 76v39" vector-effect="non-scaling-stroke" style="-inkscape-stroke:hairline"/>
  <path d="m5 76h16" stroke-width=".27326" vector-effect="non-scaling-stroke" style="-inkscape-stroke:hairline"/>
  <path d="m0 71 5 5" vector-effect="non-scaling-stroke" style="-inkscape-stroke:hairline"/>
  <path d="m587.35 66a2.65 2.65 0 0 0 2.65 2.65 2.65 2.65 0 0 0 2.65-2.65 2.65 2.65 0 0 0-2.65-2.65 2.65 2.65 0 0 0-2.65 2.65z" vector-effect="non-scaling-stroke" style="-inkscape-stroke:hairline"/>
  <path d="m600 71v-66" vector-effect="non-scaling-stroke" style="-inkscape-stroke:hairline"/>
  <path d="m579 115-5 5" vector-effect="non-scaling-stroke" style="-inkscape-stroke:hairline"/>
  <path d="m579 76v39" vector-effect="non-scaling-stroke" style="-inkscape-stroke:hairline"/>
  <path d="m595 76h-16" stroke-width=".27326" vector-effect="non-scaling-stroke" style="-inkscape-stroke:hairline"/>
  <path d="m600 71-5 5" vector-effect="non-scaling-stroke" style="-inkscape-stroke:hairline"/>
 </g>
</svg>
