<?xml version="1.0" encoding="UTF-8"?>
<svg width="255mm" height="120mm" version="1.1" viewBox="0 0 255 120" xmlns="http://www.w3.org/2000/svg">
 <g fill="none" stroke="#000" stroke-linecap="round" stroke-linejoin="round" stroke-width=".26458">
  <path d="m12.65 10a2.65 2.65 0 0 1-2.65 2.65 2.65 2.65 0 0 1-2.65-2.65 2.65 2.65 0 0 1 2.65-2.65 2.65 2.65 0 0 1 2.65 2.65z" vector-effect="non-scaling-stroke" style="-inkscape-stroke:hairline"/>
  <path d="m12.65 66a2.65 2.65 0 0 1-2.65 2.65 2.65 2.65 0 0 1-2.65-2.65 2.65 2.65 0 0 1 2.65-2.65 2.65 2.65 0 0 1 2.65 2.65z" vector-effect="non-scaling-stroke" style="-inkscape-stroke:hairline"/>
  <path d="m226.6 105a1.6 1.6 0 0 1-1.6 1.6 1.6 1.6 0 0 1-1.6-1.6 1.6 1.6 0 0 1 1.6-1.6 1.6 1.6 0 0 1 1.6 1.6z" vector-effect="non-scaling-stroke" style="-inkscape-stroke:hairline"/>
  <path d="m196.6 105a1.6 1.6 0 0 1-1.6 1.6 1.6 1.6 0 0 1-1.6-1.6 1.6 1.6 0 0 1 1.6-1.6 1.6 1.6 0 0 1 1.6 1.6z" vector-effect="non-scaling-stroke" style="-inkscape-stroke:hairline"/>
  <path d="m166.6 105a1.6 1.6 0 0 1-1.6 1.6 1.6 1.6 0 0 1-1.6-1.6 1.6 1.6 0 0 1 1.6-1.6 1.6 1.6 0 0 1 1.6 1.6z" vector-effect="non-scaling-stroke" style="-inkscape-stroke:hairline"/>
  <path d="m136.6 105a1.6 1.6 0 0 1-1.6 1.6 1.6 1.6 0 0 1-1.6-1.6 1.6 1.6 0 0 1 1.6-1.6 1.6 1.6 0 0 1 1.6 1.6z" vector-effect="non-scaling-stroke" style="-inkscape-stroke:hairline"/>
  <path d="m106.6 105a1.6 1.6 0 0 1-1.6 1.6 1.6 1.6 0 0 1-1.6-1.6 1.6 1.6 0 0 1 1.6-1.6 1.6 1.6 0 0 1 1.6 1.6z" vector-effect="non-scaling-stroke" style="-inkscape-stroke:hairline"/>
  <path d="m76.6 105a1.6 1.6 0 0 1-1.6 1.6 1.6 1.6 0 0 1-1.6-1.6 1.6 1.6 0 0 1 1.6-1.6 1.6 1.6 0 0 1 1.6 1.6z" vector-effect="non-scaling-stroke" style="-inkscape-stroke:hairline"/>
  <path d="m46.6 105a1.6 1.6 0 0 1-1.6 1.6 1.6 1.6 0 0 1-1.6-1.6 1.6 1.6 0 0 1 1.6-1.6 1.6 1.6 0 0 1 1.6 1.6z" vector-effect="non-scaling-stroke" style="-inkscape-stroke:hairline"/>
  <path d="m241.6 90a1.6 1.6 0 0 1-1.6 1.6 1.6 1.6 0 0 1-1.6-1.6 1.6 1.6 0 0 1 1.6-1.6 1.6 1.6 0 0 1 1.6 1.6z" vector-effect="non-scaling-stroke" style="-inkscape-stroke:hairline"/>
  <path d="m211.6 90a1.6 1.6 0 0 1-1.6 1.6 1.6 1.6 0 0 1-1.6-1.6 1.6 1.6 0 0 1 1.6-1.6 1.6 1.6 0 0 1 1.6 1.6z" vector-effect="non-scaling-stroke" style="-inkscape-stroke:hairline"/>
  <path d="m181.6 90a1.6 1.6 0 0 1-1.6 1.6 1.6 1.6 0 0 1-1.6-1.6 1.6 1.6 0 0 1 1.6-1.6 1.6 1.6 0 0 1 1.6 1.6z" vector-effect="non-scaling-stroke" style="-inkscape-stroke:hairline"/>
  <path d="m151.6 90a1.6 1.6 0 0 1-1.6 1.6 1.6 1.6 0 0 1-1.6-1.6 1.6 1.6 0 0 1 1.6-1.6 1.6 1.6 0 0 1 1.6 1.6z" vector-effect="non-scaling-stroke" style="-inkscape-stroke:hairline"/>
  <path d="m121.6 90a1.6 1.6 0 0 1-1.6 1.6 1.6 1.6 0 0 1-1.6-1.6 1.6 1.6 0 0 1 1.6-1.6 1.6 1.6 0 0 1 1.6 1.6z" vector-effect="non-scaling-stroke" style="-inkscape-stroke:hairline"/>
  <path d="m91.6 90a1.6 1.6 0 0 1-1.6 1.6 1.6 1.6 0 0 1-1.6-1.6 1.6 1.6 0 0 1 1.6-1.6 1.6 1.6 0 0 1 1.6 1.6z" vector-effect="non-scaling-stroke" style="-inkscape-stroke:hairline"/>
  <path d="m61.6 90a1.6 1.6 0 0 1-1.6 1.6 1.6 1.6 0 0 1-1.6-1.6 1.6 1.6 0 0 1 1.6-1.6 1.6 1.6 0 0 1 1.6 1.6z" vector-effect="non-scaling-stroke" style="-inkscape-stroke:hairline"/>
  <path d="m31.6 90a1.6 1.6 0 0 1-1.6 1.6 1.6 1.6 0 0 1-1.6-1.6 1.6 1.6 0 0 1 1.6-1.6 1.6 1.6 0 0 1 1.6 1.6z" vector-effect="non-scaling-stroke" style="-inkscape-stroke:hairline"/>
  <path d="m226.6 75a1.6 1.6 0 0 1-1.6 1.6 1.6 1.6 0 0 1-1.6-1.6 1.6 1.6 0 0 1 1.6-1.6 1.6 1.6 0 0 1 1.6 1.6z" vector-effect="non-scaling-stroke" style="-inkscape-stroke:hairline"/>
  <path d="m196.6 75a1.6 1.6 0 0 1-1.6 1.6 1.6 1.6 0 0 1-1.6-1.6 1.6 1.6 0 0 1 1.6-1.6 1.6 1.6 0 0 1 1.6 1.6z" vector-effect="non-scaling-stroke" style="-inkscape-stroke:hairline"/>
  <path d="m166.6 75a1.6 1.6 0 0 1-1.6 1.6 1.6 1.6 0 0 1-1.6-1.6 1.6 1.6 0 0 1 1.6-1.6 1.6 1.6 0 0 1 1.6 1.6z" vector-effect="non-scaling-stroke" style="-inkscape-stroke:hairline"/>
  <path d="m136.6 75a1.6 1.6 0 0 1-1.6 1.6 1.6 1.6 0 0 1-1.6-1.6 1.6 1.6 0 0 1 1.6-1.6 1.6 1.6 0 0 1 1.6 1.6z" vector-effect="non-scaling-stroke" style="-inkscape-stroke:hairline"/>
  <path d="m106.6 75a1.6 1.6 0 0 1-1.6 1.6 1.6 1.6 0 0 1-1.6-1.6 1.6 1.6 0 0 1 1.6-1.6 1.6 1.6 0 0 1 1.6 1.6z" vector-effect="non-scaling-stroke" style="-inkscape-stroke:hairline"/>
  <path d="m76.6 75a1.6 1.6 0 0 1-1.6 1.6 1.6 1.6 0 0 1-1.6-1.6 1.6 1.6 0 0 1 1.6-1.6 1.6 1.6 0 0 1 1.6 1.6z" vector-effect="non-scaling-stroke" style="-inkscape-stroke:hairline"/>
  <path d="m46.6 75a1.6 1.6 0 0 1-1.6 1.6 1.6 1.6 0 0 1-1.6-1.6 1.6 1.6 0 0 1 1.6-1.6 1.6 1.6 0 0 1 1.6 1.6z" vector-effect="non-scaling-stroke" style="-inkscape-stroke:hairline"/>
  <path d="m241.6 60a1.6 1.6 0 0 1-1.6 1.6 1.6 1.6 0 0 1-1.6-1.6 1.6 1.6 0 0 1 1.6-1.6 1.6 1.6 0 0 1 1.6 1.6z" vector-effect="non-scaling-stroke" style="-inkscape-stroke:hairline"/>
  <path d="m211.6 60a1.6 1.6 0 0 1-1.6 1.6 1.6 1.6 0 0 1-1.6-1.6 1.6 1.6 0 0 1 1.6-1.6 1.6 1.6 0 0 1 1.6 1.6z" vector-effect="non-scaling-stroke" style="-inkscape-stroke:hairline"/>
  <path d="m181.6 60a1.6 1.6 0 0 1-1.6 1.6 1.6 1.6 0 0 1-1.6-1.6 1.6 1.6 0 0 1 1.6-1.6 1.6 1.6 0 0 1 1.6 1.6z" vector-effect="non-scaling-stroke" style="-inkscape-stroke:hairline"/>
  <path d="m151.6 60a1.6 1.6 0 0 1-1.6 1.6 1.6 1.6 0 0 1-1.6-1.6 1.6 1.6 0 0 1 1.6-1.6 1.6 1.6 0 0 1 1.6 1.6z" vector-effect="non-scaling-stroke" style="-inkscape-stroke:hairline"/>
  <path d="m121.6 60a1.6 1.6 0 0 1-1.6 1.6 1.6 1.6 0 0 1-1.6-1.6 1.6 1.6 0 0 1 1.6-1.6 1.6 1.6 0 0 1 1.6 1.6z" vector-effect="non-scaling-stroke" style="-inkscape-stroke:hairline"/>
  <path d="m91.6 60a1.6 1.6 0 0 1-1.6 1.6 1.6 1.6 0 0 1-1.6-1.6 1.6 1.6 0 0 1 1.6-1.6 1.6 1.6 0 0 1 1.6 1.6z" vector-effect="non-scaling-stroke" style="-inkscape-stroke:hairline"/>
  <path d="m61.6 60a1.6 1.6 0 0 1-1.6 1.6 1.6 1.6 0 0 1-1.6-1.6 1.6 1.6 0 0 1 1.6-1.6 1.6 1.6 0 0 1 1.6 1.6z" vector-effect="non-scaling-stroke" style="-inkscape-stroke:hairline"/>
  <path d="m31.6 60a1.6 1.6 0 0 1-1.6 1.6 1.6 1.6 0 0 1-1.6-1.6 1.6 1.6 0 0 1 1.6-1.6 1.6 1.6 0 0 1 1.6 1.6z" vector-effect="non-scaling-stroke" style="-inkscape-stroke:hairline"/>
  <path d="m226.6 45a1.6 1.6 0 0 1-1.6 1.6 1.6 1.6 0 0 1-1.6-1.6 1.6 1.6 0 0 1 1.6-1.6 1.6 1.6 0 0 1 1.6 1.6z" vector-effect="non-scaling-stroke" style="-inkscape-stroke:hairline"/>
  <path d="m196.6 45a1.6 1.6 0 0 1-1.6 1.6 1.6 1.6 0 0 1-1.6-1.6 1.6 1.6 0 0 1 1.6-1.6 1.6 1.6 0 0 1 1.6 1.6z" vector-effect="non-scaling-stroke" style="-inkscape-stroke:hairline"/>
  <path d="m166.6 45a1.6 1.6 0 0 1-1.6 1.6 1.6 1.6 0 0 1-1.6-1.6 1.6 1.6 0 0 1 1.6-1.6 1.6 1.6 0 0 1 1.6 1.6z" vector-effect="non-scaling-stroke" style="-inkscape-stroke:hairline"/>
  <path d="m136.6 45a1.6 1.6 0 0 1-1.6 1.6 1.6 1.6 0 0 1-1.6-1.6 1.6 1.6 0 0 1 1.6-1.6 1.6 1.6 0 0 1 1.6 1.6z" vector-effect="non-scaling-stroke" style="-inkscape-stroke:hairline"/>
  <path d="m106.6 45a1.6 1.6 0 0 1-1.6 1.6 1.6 1.6 0 0 1-1.6-1.6 1.6 1.6 0 0 1 1.6-1.6 1.6 1.6 0 0 1 1.6 1.6z" vector-effect="non-scaling-stroke" style="-inkscape-stroke:hairline"/>
  <path d="m76.6 45a1.6 1.6 0 0 1-1.6 1.6 1.6 1.6 0 0 1-1.6-1.6 1.6 1.6 0 0 1 1.6-1.6 1.6 1.6 0 0 1 1.6 1.6z" vector-effect="non-scaling-stroke" style="-inkscape-stroke:hairline"/>
  <path d="m46.6 45a1.6 1.6 0 0 1-1.6 1.6 1.6 1.6 0 0 1-1.6-1.6 1.6 1.6 0 0 1 1.6-1.6 1.6 1.6 0 0 1 1.6 1.6z" vector-effect="non-scaling-stroke" style="-inkscape-stroke:hairline"/>
  <path d="m16.6 45a1.6 1.6 0 0 1-1.6 1.6 1.6 1.6 0 0 1-1.6-1.6 1.6 1.6 0 0 1 1.6-1.6 1.6 1.6 0 0 1 1.6 1.6z" vector-effect="non-scaling-stroke" style="-inkscape-stroke:hairline"/>
  <path d="m241.6 30a1.6 1.6 0 0 1-1.6 1.6 1.6 1.6 0 0 1-1.6-1.6 1.6 1.6 0 0 1 1.6-1.6 1.6 1.6 0 0 1 1.6 1.6z" vector-effect="non-scaling-stroke" style="-inkscape-stroke:hairline"/>
  <path d="m211.6 30a1.6 1.6 0 0 1-1.6 1.6 1.6 1.6 0 0 1-1.6-1.6 1.6 1.6 0 0 1 1.6-1.6 1.6 1.6 0 0 1 1.6 1.6z" vector-effect="non-scaling-stroke" style="-inkscape-stroke:hairline"/>
  <path d="m181.6 30a1.6 1.6 0 0 1-1.6 1.6 1.6 1.6 0 0 1-1.6-1.6 1.6 1.6 0 0 1 1.6-1.6 1.6 1.6 0 0 1 1.6 1.6z" vector-effect="non-scaling-stroke" style="-inkscape-stroke:hairline"/>
  <path d="m151.6 30a1.6 1.6 0 0 1-1.6 1.6 1.6 1.6 0 0 1-1.6-1.6 1.6 1.6 0 0 1 1.6-1.6 1.6 1.6 0 0 1 1.6 1.6z" vector-effect="non-scaling-stroke" style="-inkscape-stroke:hairline"/>
  <path d="m121.6 30a1.6 1.6 0 0 1-1.6 1.6 1.6 1.6 0 0 1-1.6-1.6 1.6 1.6 0 0 1 1.6-1.6 1.6 1.6 0 0 1 1.6 1.6z" vector-effect="non-scaling-stroke" style="-inkscape-stroke:hairline"/>
  <path d="m91.6 30a1.6 1.6 0 0 1-1.6 1.6 1.6 1.6 0 0 1-1.6-1.6 1.6 1.6 0 0 1 1.6-1.6 1.6 1.6 0 0 1 1.6 1.6z" vector-effect="non-scaling-stroke" style="-inkscape-stroke:hairline"/>
  <path d="m61.6 30a1.6 1.6 0 0 1-1.6 1.6 1.6 1.6 0 0 1-1.6-1.6 1.6 1.6 0 0 1 1.6-1.6 1.6 1.6 0 0 1 1.6 1.6z" vector-effect="non-scaling-stroke" style="-inkscape-stroke:hairline"/>
  <path d="m31.6 30a1.6 1.6 0 0 1-1.6 1.6 1.6 1.6 0 0 1-1.6-1.6 1.6 1.6 0 0 1 1.6-1.6 1.6 1.6 0 0 1 1.6 1.6z" vector-effect="non-scaling-stroke" style="-inkscape-stroke:hairline"/>
  <path d="m226.6 15a1.6 1.6 0 0 1-1.6 1.6 1.6 1.6 0 0 1-1.6-1.6 1.6 1.6 0 0 1 1.6-1.6 1.6 1.6 0 0 1 1.6 1.6z" vector-effect="non-scaling-stroke" style="-inkscape-stroke:hairline"/>
  <path d="m196.6 15a1.6 1.6 0 0 1-1.6 1.6 1.6 1.6 0 0 1-1.6-1.6 1.6 1.6 0 0 1 1.6-1.6 1.6 1.6 0 0 1 1.6 1.6z" vector-effect="non-scaling-stroke" style="-inkscape-stroke:hairline"/>
  <path d="m166.6 15a1.6 1.6 0 0 1-1.6 1.6 1.6 1.6 0 0 1-1.6-1.6 1.6 1.6 0 0 1 1.6-1.6 1.6 1.6 0 0 1 1.6 1.6z" vector-effect="non-scaling-stroke" style="-inkscape-stroke:hairline"/>
  <path d="m136.6 15a1.6 1.6 0 0 1-1.6 1.6 1.6 1.6 0 0 1-1.6-1.6 1.6 1.6 0 0 1 1.6-1.6 1.6 1.6 0 0 1 1.6 1.6z" vector-effect="non-scaling-stroke" style="-inkscape-stroke:hairline"/>
  <path d="m106.6 15a1.6 1.6 0 0 1-1.6 1.6 1.6 1.6 0 0 1-1.6-1.6 1.6 1.6 0 0 1 1.6-1.6 1.6 1.6 0 0 1 1.6 1.6z" vector-effect="non-scaling-stroke" style="-inkscape-stroke:hairline"/>
  <path d="m76.6 15a1.6 1.6 0 0 1-1.6 1.6 1.6 1.6 0 0 1-1.6-1.6 1.6 1.6 0 0 1 1.6-1.6 1.6 1.6 0 0 1 1.6 1.6z" vector-effect="non-scaling-stroke" style="-inkscape-stroke:hairline"/>
  <path d="m46.6 15a1.6 1.6 0 0 1-1.6 1.6 1.6 1.6 0 0 1-1.6-1.6 1.6 1.6 0 0 1 1.6-1.6 1.6 1.6 0 0 1 1.6 1.6z" vector-effect="non-scaling-stroke" style="-inkscape-stroke:hairline"/>
  <path d="m5 0h245" vector-effect="non-scaling-stroke" style="-inkscape-stroke:hairline"/>
  <path d="m250 120h-225" vector-effect="non-scaling-stroke" style="-inkscape-stroke:hairline"/>
  <path d="m5 0-5 5" vector-effect="non-scaling-stroke" style="-inkscape-stroke:hairline"/>
  <path d="m0 71v-66" vector-effect="non-scaling-stroke" style="-inkscape-stroke:hairline"/>
  <path d="m20 115 5 5" vector-effect="non-scaling-stroke" style="-inkscape-stroke:hairline"/>
  <path d="m20 76v39" vector-effect="non-scaling-stroke" style="-inkscape-stroke:hairline"/>
  <path d="m5 76h15" vector-effect="non-scaling-stroke" style="-inkscape-stroke:hairline"/>
  <path d="m3.6385e-8 71 5 5" vector-effect="non-scaling-stroke" style="-inkscape-stroke:hairline"/>
  <path d="m250 0 5 5" vector-effect="non-scaling-stroke" style="-inkscape-stroke:hairline"/>
  <path d="m255 115v-110" vector-effect="non-scaling-stroke" style="-inkscape-stroke:hairline"/>
  <path d="m255 115-5 5" vector-effect="non-scaling-stroke" style="-inkscape-stroke:hairline"/>
 </g>
</svg>
